<svg width="76" height="74" fill="none" role="img" aria-hidden="true" style="display: inline;" xmlns="http://www.w3.org/2000/svg">
    <path d="M37.5 73c-.067 0-.134-.033-.196-.099a.862.862 0 0 1-.164-.28 2.016 2.016 0 0 1-.107-.42 2.952 2.952 0 0 1-.033-.488V2.24c0-.163.013-.324.038-.475.026-.15.062-.287.109-.402a.834.834 0 0 1 .162-.269c.06-.062.125-.094.191-.094s.13.032.191.094c.06.063.116.154.162.27.047.114.084.251.109.401.025.15.038.312.038.475v69.473c.002.166-.009.333-.033.489-.024.156-.06.298-.107.418a.862.862 0 0 1-.164.281c-.062.066-.129.1-.196.099z" fill="#000"></path>
    <path d="M37.5 73c-.067 0-.134-.033-.196-.099a.862.862 0 0 1-.164-.28 2.016 2.016 0 0 1-.107-.42 2.952 2.952 0 0 1-.033-.488V2.24c0-.163.013-.324.038-.475.026-.15.062-.287.109-.402a.834.834 0 0 1 .162-.269c.06-.062.125-.094.191-.094s.13.032.191.094c.06.063.116.154.162.27.047.114.084.251.109.401.025.15.038.312.038.475v69.473c.002.166-.009.333-.033.489-.024.156-.06.298-.107.418a.862.862 0 0 1-.164.281c-.062.066-.129.1-.196.099z" stroke="#000" stroke-width=".2" stroke-miterlimit="10"></path>
    <path d="M18.692 61.905c-.864 0-1.969-.762-2.065-2.857l-2.16-41.286-2.88 26.333c0 1.953-1.201 2.62-2.065 2.62-.816 0-1.873-.715-2.065-2.667L6.401 33.572 5.297 41.19c-.24 1.715-1.2 2.382-1.969 2.43-.768.047-1.584 0-2.064-2.048L.016 36.19c-.047-.277.01-.56.161-.797.15-.237.384-.411.655-.49.28-.057.57-.005.813.146.241.151.415.39.483.664l1.104 4.762 1.153-7.904c.288-1.81 1.296-2.43 2.064-2.43s1.873.763 2.065 2.668l1.008 10.38 2.928-26.57c0-1.953 1.2-2.62 2.113-2.62.912 0 1.92.81 2.016 2.905l2.16 41.19 1.921-20.142c0-1.953 1.248-2.667 2.065-2.667.816 0 1.824.619 2.064 2.428l1.633 11.62 1.44-10.477c.035-.252.161-.483.356-.65.194-.166.443-.257.7-.255h3.025c.28 0 .549.11.747.307.198.197.309.463.309.741a1.041 1.041 0 0 1-.64 1.011 1.064 1.064 0 0 1-.416.084h-2.065l-1.44 10.62c-.48 2-1.68 2.095-2.064 2.095-.385 0-1.729-.715-1.969-2.429L22.773 38.81 20.804 59.38c0 1.952-1.248 2.619-2.064 2.619M49.297 42c-1 0-1.967-.347-2.72-.979l-.73-.652a1.71 1.71 0 0 0-.558-.35 1.767 1.767 0 0 0-.656-.116h-2.284a1.164 1.164 0 0 1-.935-.216c-.13-.1-.233-.227-.305-.371a1.036 1.036 0 0 1 0-.923c.072-.144.176-.271.305-.372a1.162 1.162 0 0 1 .935-.216h2.43c.992.01 1.945.377 2.672 1.026l.777.652c.326.302.762.47 1.215.47.453 0 .888-.168 1.214-.47l2.721-2.47A4.129 4.129 0 0 1 56.1 36a4.13 4.13 0 0 1 2.72 1.013l1.41 1.259c.342.308.794.479 1.263.479.47 0 .921-.171 1.263-.48a4.046 4.046 0 0 1 2.312-1.128c.88-.118 1.777.05 2.547.476.288.183.626.28.971.28h5.345c.283 0 .555.108.756.3.2.192.313.453.313.725a.988.988 0 0 1-.067.407 1.02 1.02 0 0 1-.228.348c-.1.1-.22.18-.353.235a1.108 1.108 0 0 1-.421.082h-5.247a4.113 4.113 0 0 1-2.09-.56 1.91 1.91 0 0 0-2.283.28 4.125 4.125 0 0 1-2.794 1.079 4.125 4.125 0 0 1-2.793-1.079l-1.41-1.258a1.789 1.789 0 0 0-1.214-.47c-.453 0-.889.168-1.215.47l-2.672 2.47a4.13 4.13 0 0 1-2.77 1.025" fill="#000"></path>
    <path d="M49.297 41.998c-1 0-1.967-.347-2.72-.978l-.73-.653a1.71 1.71 0 0 0-.558-.349 1.765 1.765 0 0 0-.656-.117h-2.284a1.164 1.164 0 0 1-.935-.215 1.08 1.08 0 0 1-.305-.372 1.036 1.036 0 0 1 0-.922 1.08 1.08 0 0 1 .305-.372 1.164 1.164 0 0 1 .935-.216h2.43c.992.011 1.945.377 2.672 1.026l.777.652c.326.302.762.47 1.215.47a1.79 1.79 0 0 0 1.214-.47l2.721-2.47A4.13 4.13 0 0 1 56.1 36a4.13 4.13 0 0 1 2.72 1.013l1.41 1.258c.342.308.794.479 1.263.479.47 0 .921-.171 1.263-.48a4.047 4.047 0 0 1 2.312-1.128c.88-.118 1.777.05 2.547.476.288.184.626.28.971.28h5.345c.283 0 .555.108.756.3.2.193.313.453.313.725a.987.987 0 0 1-.067.407c-.05.13-.129.248-.228.348-.1.1-.22.18-.353.235a1.11 1.11 0 0 1-.421.082h-5.247a4.114 4.114 0 0 1-2.09-.56 1.912 1.912 0 0 0-1.192-.243c-.415.05-.8.235-1.091.523a4.126 4.126 0 0 1-2.794 1.078 4.126 4.126 0 0 1-2.793-1.078l-1.41-1.258a1.79 1.79 0 0 0-1.214-.47 1.79 1.79 0 0 0-1.215.47l-2.672 2.47a4.06 4.06 0 0 1-1.345.817 4.19 4.19 0 0 1-1.57.254z" stroke="#000" stroke-width=".2" stroke-miterlimit="10"></path>
</svg>